<svg id="Ebene_1" data-name="Ebene 1" xmlns="http://www.w3.org/2000/svg" xmlns:xlink="http://www.w3.org/1999/xlink" viewBox="0 0 492.57 128.39"><defs><style>.cls-1{fill:url(#Unbenannter_Verlauf_4);}.cls-2{fill:#81b13e;}.cls-3{fill:#1e5390;}.cls-4{fill:url(#Unbenannter_Verlauf_4-2);}</style><linearGradient id="Unbenannter_Verlauf_4" x1="378.26" y1="101.22" x2="502.89" y2="9.4" gradientUnits="userSpaceOnUse"><stop offset="0.25" stop-color="#80b03e"/><stop offset="0.57" stop-color="#5dafad"/><stop offset="0.75" stop-color="#4baee7"/></linearGradient><linearGradient id="Unbenannter_Verlauf_4-2" x1="333.46" y1="128.14" x2="333.46" y2="-23.65" xlink:href="#Unbenannter_Verlauf_4"/></defs><path class="cls-1" d="M478.28,82.35c0,1.92,1.17,3.66,5.82,4.84,5.17,1.36,7.71,3.75,7.71,7.09,0,3.71-3.1,7-8.55,7a13.23,13.23,0,0,1-8.64-3L476,96.34a12.15,12.15,0,0,0,7.32,2.59c3.76,0,5.78-1.93,5.78-4.18s-1-4-6.53-5.4c-4.32-1.13-7-3.43-7-6.58s2.78-6.34,8-6.34a12.48,12.48,0,0,1,7.61,2.49l-1.37,2a9.61,9.61,0,0,0-6.1-2.16c-3.71,0-5.45,1.93-5.45,3.62M461.09,76.9h2.39l.24,5.59c1.78-4,5.26-6.06,10-6.06l0,2.72h-.42c-5.82,0-9.49,3.43-9.49,10.9v10.71h-2.72ZM437,93.81c0,2.86,2.64,5.26,7.28,5.26,5.12,0,7.75-2.4,7.75-5.26s-2.63-5.31-7.75-5.31c-4.64,0-7.28,2.44-7.28,5.31m-2.72.09c0-4,3.57-7.51,9.49-7.51,3.66,0,6.39,1.22,8,3V87.09c0-5.73-3.15-8.31-7.61-8.31a10,10,0,0,0-7,2.53l-1.46-1.83s2.91-3,8.78-3c6.34,0,10,3.76,10,10.66v13.67H452.4L452.07,98c-1.69,1.93-4.51,3.2-8.31,3.2-6,0-9.49-3.29-9.49-7.33m-6.15-7.18a9.11,9.11,0,0,0-8.78-8,9.62,9.62,0,0,0-9.63,8Zm-8.83,14.51a12.19,12.19,0,0,1-12.45-12.35,12.38,12.38,0,0,1,12.54-12.45,11.65,11.65,0,0,1,11.46,11.84,3.32,3.32,0,0,1,0,.51H409.61c.05,6,4.28,10,9.82,10A10.08,10.08,0,0,0,428.12,94L430,95.31a12.31,12.31,0,0,1-10.66,5.92M385.89,76.9l8.69,20.85,8.69-20.85h2.91L395.76,101c-2.07,4.79-5.08,7.75-9,7.75a6.82,6.82,0,0,1-3.9-.89l.94-2.16a5.61,5.61,0,0,0,2.87.61c2.63,0,4.83-1.83,6.52-5.59L382.84,76.9Zm50.26-32.44c0-11.11-9.2-19.65-21-19.65S394,33.35,394,44.46s9.21,19.65,21.13,19.65,21-8.54,21-19.65m4.12-.06c0,13-11.09,23.18-25.31,23.18s-25.1-10.08-25.1-23.06S401,21.34,415.17,21.34s25.1,10.08,25.1,23.06m49,.06c0-11.11-9.21-19.65-21.06-19.65s-21.12,8.54-21.12,19.65,9.2,19.65,21.12,19.65,21.06-8.54,21.06-19.65m4.11-.06c0,13-11.08,23.18-25.31,23.18s-25.1-10.08-25.1-23.06,11.16-23.18,25.31-23.18,25.1,10.08,25.1,23.06m-116.6-22v3.47h6V66.55h4.07V22.37Z" transform="translate(-0.78 -0.14)"/><g id="Ivoclar_Logo" data-name="Ivoclar Logo"><path class="cls-2" d="M8.77,37.4a7.94,7.94,0,0,0,8.07-7.9,8.11,8.11,0,0,0-8.07-8.16,7.93,7.93,0,0,0-8,8.16A7.76,7.76,0,0,0,8.77,37.4Z" transform="translate(-0.78 -0.14)"/><path class="cls-3" d="M261.7,91.1c3.18,0,5.26-1.72,5.26-5.17V67.34c0-7,4.9-11.16,13.25-11.16h4V45.74h-2.9c-6.44,0-10.89,2.18-14.16,6.9H267v-6.9H256.44V85.93C256.44,89.38,258.53,91.1,261.7,91.1ZM221,81.13a13.26,13.26,0,1,1,12.79-13.25A12.95,12.95,0,0,1,221,81.13Zm-.91,10a15.48,15.48,0,0,0,13.34-6.71h.18v1.54c0,3.45,2.08,5.17,5.26,5.17s5.26-1.72,5.26-5.17V45.74H233.58v5.63h-.18a15.49,15.49,0,0,0-13.34-6.72c-12.25,0-22.59,10.62-22.59,23.23S207.81,91.1,220.06,91.1Zm-37.92,0c3.08,0,5.17-1.63,5.26-4.89V25.33H176.87V86.21C177,89.47,179.05,91.1,182.14,91.1Zm-33.84,0A23.47,23.47,0,0,0,168.17,80L160,74.14a13.56,13.56,0,0,1-11.7,7,13.26,13.26,0,0,1,0-26.5,13.56,13.56,0,0,1,11.7,7l8.17-5.81A23.33,23.33,0,1,0,148.3,91.1Zm-54.07-10A13.26,13.26,0,1,1,107,67.88,12.95,12.95,0,0,1,94.23,81.13Zm-50.08,10c3.63,0,6.08-1.63,8.07-6.62L67.46,45.74H56.3L44.6,77.31h-.18L32.81,45.74H21.1L36.25,84.57C38.16,89.47,40.52,91.1,44.15,91.1Zm-35.29,0c3.17,0,5.26-1.72,5.26-5.17V45.74H3.59V85.93C3.59,89.38,5.68,91.1,8.86,91.1Zm85.37,0a23.23,23.23,0,1,0-23.5-23.22A23.38,23.38,0,0,0,94.23,91.1Z" transform="translate(-0.78 -0.14)"/></g><rect class="cls-4" x="331.42" width="4.07" height="128.39"/></svg>